<?xml version="1.0" encoding="utf-8"?>
<svg width="1920px" height="1080px" viewBox="0 0 1920 1080" version="1.1" xmlns:xlink="http://www.w3.org/1999/xlink" xmlns="http://www.w3.org/2000/svg">
  <defs>
    <rect width="1920" height="1080" id="artboard_1" />
    <clipPath id="clip_1">
      <use xlink:href="#artboard_1" clip-rule="evenodd" />
    </clipPath>
  </defs>
  <g id="Full-HD" clip-path="url(#clip_1)">
    <use xlink:href="#artboard_1" stroke="none" fill="#111111" />
    <g id="CiTrouille" transform="translate(669.1416 262.5)" artboard="1a2870dc-8c7f-47e0-8624-ae76290122c2">
      <path d="M291 0C266.714 0 246.11 17.3594 241.404 40.5018C239.888 47.2115 242.121 54.2165 247.241 58.8111C252.36 63.4057 259.565 64.8706 266.072 62.64C272.58 60.4095 277.371 54.8326 278.595 48.0635C279.76 42.3336 284.693 37.9565 291 37.9565C298.221 37.9565 303.652 43.3879 303.652 50.6087C303.652 71.3971 290.854 83.9438 284.625 88.837C232.592 91.7454 182.42 129.744 163.712 181.455C161.852 186.592 157.001 189.783 151.826 189.783C150.396 189.783 148.931 189.535 147.502 189.017C140.935 186.638 137.549 179.372 139.915 172.806C147.911 150.728 160.875 130.854 177.007 114.191C175.248 114.128 173.515 113.87 171.743 113.87C77.0545 113.87 0 207.521 0 322.63C0 437.74 77.0545 531.391 171.743 531.391C173.515 531.391 175.26 531.133 177.032 531.07C160.9 514.407 147.923 494.533 139.94 472.455C137.561 465.876 140.96 458.623 147.526 456.244C154.143 453.866 161.371 457.264 163.737 463.831C183.196 517.64 236.735 556.696 291 556.696C345.265 556.696 398.816 517.628 418.288 463.806C420.666 457.239 427.907 453.828 434.498 456.22C441.065 458.598 444.451 465.864 442.085 472.43C434.101 494.496 421.125 514.395 404.993 531.045C406.764 531.134 408.522 531.391 410.306 531.391C446.529 531.391 481.125 517.928 510.288 492.446C555.19 453.389 582 389.878 582 322.581C582 207.497 504.97 113.87 410.306 113.87C408.522 113.87 406.764 114.115 404.993 114.191C421.125 130.854 434.101 150.753 442.085 172.831C444.463 179.41 441.065 186.663 434.498 189.041C433.069 189.547 431.604 189.783 430.174 189.783C424.999 189.783 420.148 186.592 418.288 181.455C403.409 140.327 368.597 107.887 328.808 94.8419C335.923 83.4227 341.609 68.6781 341.609 50.6087C341.609 22.8842 318.724 0 291 0L291 0Z" id="Corp" fill="#393939" fill-rule="evenodd" stroke="none" />
      <g id="Visage" transform="translate(166 236.58594)">
        <g id="Zyeux">
          <path d="M0 35.5244C0 15.9048 13.5582 0 30.2831 0C47.0079 0 60.5661 15.9048 60.5661 35.5244C60.5661 55.1439 47.0079 71.0487 30.2831 71.0487C13.5582 71.0487 0 55.1439 0 35.5244Z" id="Oval" fill="#272727" fill-rule="evenodd" stroke="none" />
          <path d="M190.434 35.5244C190.434 15.9048 203.992 0 220.717 0C237.442 0 251 15.9048 251 35.5244C251 55.1439 237.442 71.0487 220.717 71.0487C203.992 71.0487 190.434 55.1439 190.434 35.5244Z" id="Oval-2" fill="#272727" fill-rule="evenodd" stroke="none" />
        </g>
        <path d="M125.248 97.9061C125.248 97.9061 169.108 96.2107 169.108 127.807C169.108 159.403 149.408 185.017 125.107 185.017C100.807 185.017 81.1076 159.403 81.1077 127.807C81.1078 96.2104 125.248 97.9061 125.248 97.9061Z" id="Bouhche" fill="#272727" fill-rule="evenodd" stroke="none" />
      </g>
    </g>
    <g id="Fantome" transform="translate(458.99573 262.5)" artboard="75065996-5e57-477d-a9fa-ba0449cb5e76">
      <path d="M351.124 240.715C351.124 234.81 336.128 223.325 343.762 214.751C350.928 206.702 369.88 211.546 385.428 215.14C392.778 216.839 400.702 193.094 405.77 193.094C429.715 193.094 449.126 204.867 449.126 219.389C449.126 233.911 429.715 245.683 405.77 245.683C381.826 245.683 351.124 255.237 351.124 240.715Z" id="Main-droite" fill="#D8D8D8" fill-rule="evenodd" stroke="none" />
      <path d="M104.023 218.063C105.666 211.931 124.437 204.176 118.895 193.147C113.691 182.793 92.6606 182.55 75.5124 181.956C67.4068 181.675 65.7844 154.809 60.5209 153.398C35.6526 146.735 12.2168 153.56 8.17561 168.642C4.1344 183.724 21.0181 201.352 45.8864 208.016C70.7548 214.679 99.9818 233.146 104.023 218.063Z" id="Main-gauche" fill="#D8D8D8" fill-rule="evenodd" stroke="none" />
      <path d="M90.956 127.659C107.294 55.1319 150.357 0 231.06 0C311.763 0 383.208 60.4807 383.208 127.659C383.208 143.134 379.737 157.934 373.407 171.548C367.027 190.884 355 241.151 369.907 270.438C378.128 286.59 454.478 345.388 467.592 351.555C478.962 356.902 510.562 379.536 498.173 392.954C495.727 395.603 433.071 412.262 378.267 405.581C311.436 397.433 247.482 364.354 208.178 351.555C161.705 336.421 119.241 292.54 107.498 270.438C95.7559 248.336 74.6178 200.187 90.956 127.659Z" id="Corp" fill="#FFFFFF" fill-rule="evenodd" stroke="none" />
      <g id="Visage" transform="translate(146.43802 131.27185)">
        <g id="Nyeux">
          <path d="M0 21.4767C0 9.61546 8.19678 0 18.308 0C28.4193 0 36.6161 9.61546 36.6161 21.4767C36.6161 33.338 28.4193 42.9535 18.308 42.9535C8.19678 42.9535 0 33.338 0 21.4767Z" id="Oval" fill="#272727" fill-rule="evenodd" stroke="none" />
          <path d="M115.129 21.4767C115.129 9.61546 123.326 0 133.437 0C143.549 0 151.745 9.61546 151.745 21.4767C151.745 33.338 143.549 42.9535 133.437 42.9535C123.326 42.9535 115.129 33.338 115.129 21.4767Z" id="Oval-2" fill="#272727" fill-rule="evenodd" stroke="none" />
        </g>
        <path d="M74.6725 64.775C95.1464 64.7751 116.421 51.1251 116.421 70.1284C116.421 89.1316 98.0876 104.537 75.4727 104.536C52.8578 104.536 34.5249 89.1313 34.5249 70.1281C34.525 51.1248 54.1985 64.775 74.6725 64.775Z" id="Bouche" fill="#272727" fill-rule="evenodd" stroke="none" />
      </g>
    </g>
  </g>
</svg>
